# xmcd
#
# Track frame offsets:
#	150
#	16502
#	35272
#	60802
#	86647
#	108477
#	146582
#	184860
#	215622
#	236962
#	260092
#	278405
#	296522
#	319502
#
# Disc length: 4562 seconds
#
# Revision: 1
# Processed by: cddbd v1.5.1PL2 Copyright (c) Steve Scherf et al.
# Submitted via: dBpowerAMP V4.0
#
DISCID=c011d00e
DTITLE=Trafassi - Sranang Fesa
DYEAR=1996
DGENRE=Suripop
TTITLE0=Bovenop
TTITLE1=Money Money
TTITLE2=Santo Boma
TTITLE3=Wasmasjien
TTITLE4=No Dji Meng So
TTITLE5=Push The Feeling On
TTITLE6=Marindo
TTITLE7=Broibonki
TTITLE8=De Na Liba
TTITLE9=Stuiver Dubbeltje Kwartje Gulden
TTITLE10=Bigi Fasie
TTITLE11=Ik Wil Een Meisje
TTITLE12=Lagadisa
TTITLE13=Palm-/ Jeruzalem
EXTD=Suriyanto.nl , Suriyanto.tk, Jawa.uni.cc\nSranan Fesa CD original
EXTT0=
EXTT1=
EXTT2=
EXTT3=
EXTT4=
EXTT5=
EXTT6=
EXTT7=
EXTT8=
EXTT9=
EXTT10=
EXTT11=
EXTT12=
EXTT13=
PLAYORDER=
